<svg width="179" height="42" viewBox="0 0 179 42" fill="none" xmlns="http://www.w3.org/2000/svg">
<path d="M65.584 15.136C65.4773 14.7947 65.0613 14.496 64.336 14.24C63.632 13.9627 62.704 13.824 61.552 13.824C60.2933 13.824 59.312 14.176 58.608 14.88C57.904 15.584 57.552 16.4693 57.552 17.536C57.552 18.1973 57.7867 18.7093 58.256 19.072C58.7467 19.4133 59.4933 19.7973 60.496 20.224L61.648 20.704L62.608 21.152C63.76 21.664 64.6667 22.1333 65.328 22.56C66.0107 22.9653 66.5867 23.5307 67.056 24.256C67.5253 24.9813 67.76 25.9093 67.76 27.04C67.76 28.256 67.3547 29.312 66.544 30.208C65.7547 31.0827 64.6453 31.744 63.216 32.192C61.7867 32.6613 60.1227 32.896 58.224 32.896C56.816 32.896 55.4933 32.672 54.256 32.224C53.04 31.7973 52.0693 31.2533 51.344 30.592C50.64 29.9307 50.288 29.28 50.288 28.64C50.288 28.0213 50.5547 27.52 51.088 27.136C51.6213 26.7307 52.3787 26.4533 53.36 26.304C53.4667 26.9227 53.8293 27.4773 54.448 27.968C55.0667 28.4587 55.7813 28.8533 56.592 29.152C57.424 29.4293 58.1493 29.568 58.768 29.568C59.8987 29.568 60.9013 29.344 61.776 28.896C62.672 28.448 63.12 27.8293 63.12 27.04C63.12 26.3787 62.8 25.8347 62.16 25.408C61.5413 24.96 60.6027 24.48 59.344 23.968L57.648 23.2C56.2613 22.5173 55.1627 21.7493 54.352 20.896C53.5413 20.0427 53.136 18.912 53.136 17.504C53.136 15.9467 53.5733 14.688 54.448 13.728C55.3227 12.7467 56.3787 12.0427 57.616 11.616C58.8747 11.1893 60.1013 10.976 61.296 10.976C63.1947 10.976 64.752 11.2213 65.968 11.712C67.2053 12.2027 68.1013 12.8213 68.656 13.568C69.2107 14.3147 69.488 15.0827 69.488 15.872C69.488 16.32 69.3707 16.864 69.136 17.504C68.9227 18.144 68.592 18.6987 68.144 19.168C67.7173 19.6373 67.1947 19.872 66.576 19.872C65.5093 19.872 64.976 19.3173 64.976 18.208C65.0187 17.8667 65.1147 17.312 65.264 16.544C65.4133 15.7547 65.52 15.2853 65.584 15.136ZM78.1578 32.672C76.0671 32.672 74.5418 32.256 73.5818 31.424C72.6218 30.592 72.1418 29.4827 72.1418 28.096C72.1418 26.0693 72.6431 24.192 73.6458 22.464C74.6698 20.736 76.0244 19.3707 77.7098 18.368C79.4164 17.344 81.2511 16.832 83.2138 16.832C84.4084 16.832 85.4111 17.1733 86.2218 17.856C87.0324 18.5173 87.4378 19.4987 87.4378 20.8C87.4378 21.5467 87.1924 22.1653 86.7018 22.656C86.2324 23.1253 85.5498 23.552 84.6538 23.936C83.7578 24.2987 82.3071 24.8213 80.3018 25.504C78.4884 26.1013 77.0164 26.6027 75.8858 27.008C75.8004 27.328 75.7578 27.6587 75.7578 28C75.7578 28.5973 76.0031 29.056 76.4938 29.376C77.0058 29.696 77.7204 29.856 78.6378 29.856C79.2138 29.856 79.8751 29.7387 80.6218 29.504C81.3684 29.2693 81.8378 28.9707 82.0298 28.608C82.7551 27.2853 83.4164 26.624 84.0138 26.624C84.8884 26.624 85.4751 26.7947 85.7738 27.136C86.0938 27.456 86.2644 27.8187 86.2858 28.224C86.0298 28.9067 85.5284 29.6 84.7818 30.304C84.0351 30.9867 83.0858 31.552 81.9338 32C80.7818 32.448 79.5231 32.672 78.1578 32.672ZM76.7818 24.064C78.8938 23.3813 80.6324 22.752 81.9978 22.176C83.3631 21.5787 84.0458 20.992 84.0458 20.416C84.0458 20.16 83.9071 19.9573 83.6298 19.808C83.3524 19.6373 83.0538 19.552 82.7338 19.552C82.0938 19.552 81.3578 19.7973 80.5258 20.288C79.7151 20.7787 78.9578 21.376 78.2538 22.08C77.5498 22.784 77.0591 23.4453 76.7818 24.064ZM92.3873 17.376C92.3233 17.312 92.2913 17.2373 92.2913 17.152C92.2913 16.9387 92.5259 16.768 92.9953 16.64C93.4646 16.4907 94.1153 16.416 94.9473 16.416C95.7153 16.416 96.2806 16.6187 96.6433 17.024C97.0059 17.408 97.2193 17.8773 97.2833 18.432L96.7073 20.512C97.1553 19.8933 97.7846 19.3067 98.5953 18.752C99.4059 18.176 100.227 17.7173 101.059 17.376C101.891 17.0347 102.574 16.864 103.107 16.864C104.238 16.864 105.059 17.0773 105.571 17.504C106.083 17.9093 106.339 18.56 106.339 19.456C105.081 22.7413 104.249 26.2827 103.843 30.08L104.291 31.648C104.035 32.1387 103.673 32.5227 103.203 32.8C102.755 33.0987 102.094 33.248 101.219 33.248C100.707 33.248 100.334 33.0773 100.099 32.736C99.8646 32.3947 99.7473 31.968 99.7473 31.456C99.7473 30.0267 99.9499 28.4587 100.355 26.752C100.782 25.024 101.273 23.264 101.827 21.472C102.041 20.7893 102.147 20.4373 102.147 20.416C102.147 20.1173 101.977 19.968 101.635 19.968C101.166 19.968 100.451 20.2987 99.4913 20.96C98.5526 21.6213 97.5819 22.7413 96.5793 24.32C95.5766 25.8773 94.7659 27.9253 94.1473 30.464C94.1046 30.592 94.0513 30.8267 93.9873 31.168C93.9233 31.5093 93.7526 31.7547 93.4753 31.904C93.1979 32.032 92.7499 32.096 92.1313 32.096C91.4273 32.096 90.9046 32.0213 90.5633 31.872C90.2433 31.7227 90.0833 31.4027 90.0833 30.912C90.1473 30.6133 90.2433 30.2507 90.3713 29.824C91.6086 24.8533 92.5579 21.024 93.2193 18.336L92.3873 17.376ZM114.501 21.472C114.501 21.8987 114.693 22.24 115.077 22.496C115.461 22.752 116.069 23.04 116.901 23.36C117.797 23.7227 118.523 24.064 119.077 24.384C119.632 24.704 120.112 25.1733 120.517 25.792C120.944 26.3893 121.157 27.1573 121.157 28.096C121.157 29.632 120.517 30.816 119.237 31.648C117.979 32.4587 116.283 32.864 114.149 32.864C113.104 32.864 112.123 32.6933 111.205 32.352C110.309 32.032 109.595 31.6267 109.061 31.136C108.528 30.6453 108.261 30.1547 108.261 29.664C108.261 29.152 108.485 28.736 108.933 28.416C109.381 28.0747 110.011 27.8507 110.821 27.744C110.843 28.1707 111.067 28.576 111.493 28.96C111.92 29.3227 112.421 29.6213 112.997 29.856C113.595 30.0693 114.107 30.176 114.533 30.176C115.259 30.176 115.92 29.984 116.517 29.6C117.115 29.1947 117.413 28.7253 117.413 28.192C117.413 27.2107 116.464 26.432 114.565 25.856C113.349 25.4933 112.411 24.9173 111.749 24.128C111.109 23.3387 110.789 22.5067 110.789 21.632C110.789 20.096 111.419 18.912 112.677 18.08C113.957 17.248 115.664 16.832 117.797 16.832C118.843 16.832 119.771 16.992 120.581 17.312C121.413 17.632 122.053 18.048 122.501 18.56C122.949 19.0507 123.173 19.5413 123.173 20.032C123.173 20.544 122.949 20.9707 122.501 21.312C122.053 21.632 121.424 21.8453 120.613 21.952C120.592 21.5253 120.4 21.1307 120.037 20.768C119.696 20.384 119.28 20.0853 118.789 19.872C118.299 19.6373 117.84 19.52 117.413 19.52C116.688 19.52 116.016 19.712 115.397 20.096C114.8 20.48 114.501 20.9387 114.501 21.472ZM131.684 32.32C129.807 32.32 128.345 31.68 127.3 30.4C126.255 29.12 125.732 27.488 125.732 25.504C125.732 23.84 126.084 22.3147 126.788 20.928C127.513 19.5413 128.516 18.4533 129.796 17.664C131.097 16.8533 132.58 16.448 134.244 16.448C136.1 16.448 137.348 16.608 137.988 16.928C138.18 17.0133 138.351 17.152 138.5 17.344C138.649 17.5147 138.724 17.6853 138.724 17.856C138.724 18.0693 138.671 18.2933 138.564 18.528C138.479 18.7627 138.34 18.944 138.148 19.072C138.639 19.1147 139.055 19.36 139.396 19.808C139.737 20.2347 139.993 20.736 140.164 21.312C140.335 21.888 140.42 22.3893 140.42 22.816C140.42 24.3307 140.047 25.824 139.3 27.296C138.575 28.768 137.551 29.9733 136.228 30.912C134.905 31.8507 133.391 32.32 131.684 32.32ZM132.164 29.664C132.847 29.664 133.54 29.3333 134.244 28.672C134.969 27.9893 135.567 27.0933 136.036 25.984C136.505 24.8747 136.74 23.712 136.74 22.496C136.74 22.2613 136.655 22.048 136.484 21.856C136.335 21.664 136.121 21.4613 135.844 21.248C135.695 21.1413 135.556 21.0347 135.428 20.928C135.321 20.8 135.268 20.6827 135.268 20.576C135.268 20.4907 135.289 20.3733 135.332 20.224C135.396 20.0747 135.428 19.968 135.428 19.904C135.428 19.584 135.033 19.424 134.244 19.424C133.369 19.424 132.559 19.776 131.812 20.48C131.087 21.184 130.511 22.08 130.084 23.168C129.679 24.256 129.476 25.3227 129.476 26.368C129.476 26.9867 129.615 27.552 129.892 28.064C130.169 28.5547 130.511 28.9493 130.916 29.248C131.343 29.5253 131.759 29.664 132.164 29.664ZM147.454 30.784C147.433 30.9333 147.39 31.1893 147.326 31.552C147.283 31.9147 147.123 32.1707 146.846 32.32C146.59 32.4693 146.153 32.544 145.534 32.544C144.83 32.544 144.307 32.4693 143.966 32.32C143.625 32.1707 143.443 31.8507 143.422 31.36C143.593 30.5067 143.87 28.992 144.254 26.816C144.382 26.0907 144.585 25.0027 144.862 23.552C145.139 22.08 145.353 21.0133 145.502 20.352C145.715 18.8373 146.014 17.8453 146.398 17.376C146.782 16.8853 147.251 16.64 147.806 16.64C148.553 16.64 149.043 16.7467 149.278 16.96C149.534 17.1733 149.673 17.4507 149.694 17.792L149.438 19.68C150.078 18.848 150.835 18.1653 151.71 17.632C152.585 17.0773 153.374 16.8 154.078 16.8C155.017 16.8 155.753 16.9707 156.286 17.312C156.819 17.632 157.086 18.048 157.086 18.56C157.086 18.944 156.851 19.2427 156.382 19.456C155.934 19.6693 155.337 19.808 154.59 19.872C153.417 19.9787 152.254 20.48 151.102 21.376C149.95 22.272 149.118 23.328 148.606 24.544L147.454 30.784Z" fill="#FFFCFF"/>
<path d="M176.003 10.496C177.155 10.496 177.731 11.0933 177.731 12.288C177.731 12.5653 177.72 12.7573 177.699 12.864L177.635 13.216C177.614 13.3867 177.539 13.5253 177.411 13.632C177.304 13.7387 177.08 13.888 176.739 14.08C176.654 14.144 176.483 14.2507 176.227 14.4C175.971 14.5493 175.736 14.72 175.523 14.912C174.883 15.5307 172.814 17.8347 169.315 21.824L170.883 24.608C171.139 25.0133 171.502 25.6427 171.971 26.496L173.059 28.448C173.571 29.344 173.827 30.0373 173.827 30.528V30.688C173.806 31.072 173.624 31.392 173.283 31.648C172.942 31.8827 172.547 32 172.099 32C171.608 32 170.894 31.424 169.955 30.272C168.995 29.0987 167.822 27.3493 166.435 25.024C162.616 29.2907 160.334 31.6693 159.587 32.16C159.075 32.48 158.595 32.64 158.147 32.64C158.019 32.64 157.923 32.6187 157.859 32.576C157.795 32.5333 157.71 32.448 157.603 32.32C157.496 32.192 157.358 32.064 157.187 31.936C156.739 31.5947 156.515 31.232 156.515 30.848V30.72C156.579 30.4853 156.643 30.3253 156.707 30.24L157.379 29.664C158.211 28.9387 160.622 26.304 164.611 21.76C163.651 19.904 162.872 18.1973 162.275 16.64C161.678 15.0613 161.379 13.8027 161.379 12.864C161.379 12.6507 161.39 12.4907 161.411 12.384C161.454 12 161.528 11.7227 161.635 11.552C161.763 11.3813 161.934 11.264 162.147 11.2C162.83 10.9867 163.47 10.88 164.067 10.88C164.472 10.88 164.867 10.9973 165.251 11.232C165.656 11.4453 165.87 11.744 165.891 12.128C165.87 12.256 165.859 12.448 165.859 12.704C165.859 14.0907 166.424 15.9893 167.555 18.4C170.435 15.0933 172.366 12.9707 173.347 12.032C174.414 11.008 175.299 10.496 176.003 10.496Z" fill="#247BA0"/>
<path d="M9.72813 26.8477C9.18222 26.8477 8.74142 26.4131 8.74142 25.8748C8.74142 25.3366 9.18222 24.902 9.72813 24.902H27.1465C27.2177 24.902 27.289 24.9087 27.3568 24.9254C27.9807 25.019 28.5639 25.1928 29.0861 25.4703C29.6625 25.7779 30.1542 26.2025 30.5339 26.7708C31.8394 28.7198 31.6461 30.5284 30.7238 31.8656C30.1236 32.7382 29.2081 33.3867 28.1977 33.7277C27.1804 34.072 26.0547 34.1055 25.0375 33.7377C23.4981 33.1828 22.2503 31.7687 22.0672 29.2079C22.0299 28.673 22.4401 28.2116 22.9827 28.1749C23.5252 28.1381 23.9931 28.5426 24.0304 29.0775C24.1491 30.729 24.8476 31.6049 25.7055 31.9124C26.2853 32.1197 26.9499 32.0929 27.5636 31.8857C28.1875 31.6751 28.7436 31.2873 29.0962 30.7758C29.6015 30.0436 29.6761 29.0106 28.8894 27.8372C28.6961 27.5497 28.4452 27.3324 28.1502 27.1753C27.8416 27.0115 27.4822 26.9045 27.0889 26.8443H9.72813V26.8477ZM5.22518 18.0988C4.67927 18.0988 4.23847 17.6642 4.23847 17.126C4.23847 16.5878 4.67927 16.1532 5.22518 16.1532H22.5893C22.9861 16.093 23.3455 15.986 23.654 15.8222C23.949 15.6651 24.2 15.4478 24.3932 15.1603C25.1799 13.9869 25.1019 12.9539 24.6001 12.2217C24.2474 11.7102 23.6913 11.3224 23.0674 11.1118C22.4537 10.9045 21.7857 10.8778 21.2093 11.0851C20.3548 11.3926 19.6529 12.2685 19.5343 13.92C19.497 14.4549 19.029 14.8594 18.4865 14.8226C17.944 14.7859 17.5337 14.3245 17.571 13.7896C17.7541 11.2288 19.0019 9.81471 20.5413 9.25976C21.5585 8.89536 22.6843 8.92879 23.7015 9.26979C24.712 9.61078 25.6275 10.2627 26.2276 11.1319C27.1499 12.4691 27.3432 14.2777 26.0378 16.2267C25.658 16.795 25.1663 17.2196 24.5899 17.5272C24.0677 17.8047 23.4845 17.9785 22.8606 18.0721C22.7928 18.0855 22.7216 18.0955 22.6504 18.0955H5.22518V18.0988ZM0.986715 22.4749C0.440801 22.4749 0 22.037 0 21.5021C0 20.9639 0.440801 20.5293 0.986715 20.5293H37.2917C37.6885 20.4691 38.0479 20.3621 38.353 20.1983C38.648 20.0412 38.899 19.8239 39.0922 19.5364C39.8789 18.3629 39.8009 17.3299 39.2991 16.5978C38.9464 16.0863 38.3903 15.6985 37.7664 15.4879C37.1527 15.2806 36.4847 15.2539 35.9083 15.4612C35.0538 15.7687 34.3519 16.6446 34.2333 18.2961C34.196 18.831 33.728 19.2355 33.1855 19.1987C32.643 19.1619 32.2327 18.7006 32.27 18.1657C32.4531 15.6049 33.7009 14.1908 35.2403 13.6358C36.2576 13.2714 37.3833 13.3049 38.4005 13.6459C39.411 13.9869 40.3265 14.6388 40.9266 15.508C41.8489 16.8452 42.0422 18.6538 40.7368 20.6028C40.357 21.1711 39.8653 21.5957 39.2889 21.9033C38.7667 22.1807 38.1835 22.3546 37.5596 22.4482C37.4918 22.4616 37.4206 22.4716 37.3494 22.4716H0.986715V22.4749Z" fill="#FFFCFF"/>
</svg>
